<svg xmlns="http://www.w3.org/2000/svg" width="960" height="540" viewBox="0 0 960 540">
  <rect width="960" height="540" fill="#f4f2ef"/>
  <text x="24" y="36" font-family="system-ui,sans-serif" font-size="20" font-weight="700" fill="#1a1a1a">Seta  BPM × intensity map</text>
  <rect x="24" y="52" width="912" height="40" rx="8" fill="#fff" stroke="#e2ddd6"/>
  <text x="40" y="78" font-family="system-ui,sans-serif" font-size="12" fill="#6b6b6b">Search · All · Library · Incoming · Genre · BPM range</text>
  <rect x="24" y="108" width="912" height="360" rx="10" fill="#fff" stroke="#e2ddd6"/>
  <text x="48" y="468" font-family="system-ui,sans-serif" font-size="11" fill="#9a9a9a">BPM 70</text>
  <text x="860" y="468" font-family="system-ui,sans-serif" font-size="11" fill="#9a9a9a">180</text>
  <text x="36" y="280" font-family="system-ui,sans-serif" font-size="11" fill="#9a9a9a" transform="rotate(-90 36 280)">Energy</text>
  <circle cx="180" cy="320" r="5" fill="#00838F"/><circle cx="240" cy="280" r="5" fill="#5E35B1"/>
  <circle cx="310" cy="240" r="5" fill="#C2185B"/><circle cx="400" cy="220" r="5" fill="#F9A825"/>
  <circle cx="480" cy="260" r="5" fill="#00838F"/><circle cx="560" cy="200" r="5" fill="#3949AB"/>
  <circle cx="640" cy="300" r="5" fill="#D81B60"/><circle cx="720" cy="250" r="5" fill="#43A047"/>
  <circle cx="800" cy="280" r="5" fill="#6D4C41"/><circle cx="520" cy="340" r="5" fill="#00897B"/>
  <rect x="24" y="480" width="912" height="44" rx="8" fill="#fff" stroke="#e2ddd6"/>
  <text x="40" y="508" font-family="system-ui,sans-serif" font-size="12" fill="#1a1a1a">¶  Artist  Track title · waveform · 1:24 / 6:02</text>
</svg>
